<svg width="512" height="512" xmlns="http://www.w3.org/2000/svg">
    <g style="display:inline">
        <circle style="display:inline;opacity:1;fill:#f3f3f3;fill-opacity:.996078;stroke:#606060;stroke-width:8.18422;stroke-dasharray:none;stroke-opacity:.996078" cx="256" cy="256" r="251.908"/>
    </g>
    <g style="display:inline">
        <path style="display:inline;opacity:1;fill:#616161;fill-opacity:.996078;stroke:#000;stroke-width:0;stroke-dasharray:none" d="M212.426 236.473s34.811-25.655 36.404-29.903c7.976-1.244 24.9 43.387 59.422 37.857 0 0-59.452 59.484-95.826-7.954zM352.907 208.163s66.206 69.708 129.565 87.35c0 0-41.072 14.698-75.933 6.107-27.428-10.98-53.632-93.457-53.632-93.457z"/>
        <path style="display:inline;opacity:1;fill:#1e1e1c;fill-opacity:.996078;stroke:#000;stroke-width:0;stroke-dasharray:none" d="M34.835 302.682s65.313-24.957 158.24-104.608c60.534 56.818 176.293 108.856 176.293 108.856-95.044-2.051-217.91 10.975-334.533-4.248z"/>
        <path style="display:inline;opacity:1;fill:#1e1e1c;fill-opacity:.996078;stroke:#000;stroke-width:0;stroke-dasharray:none" d="m229.183 304.275 123.677-96.003 102 93.88c-111.466 14.692-110.31 13.964-225.677 2.123Z"/>
        <path style="display:inline;opacity:1;fill:#616161;fill-opacity:.996078;stroke:#000;stroke-width:0;stroke-dasharray:none" d="M192.942 198.074c26.31 22.895 30.393 24.519 42.945 30.334 12.552 5.815 14.838 12.707 19.414 12.434 13.674-.817 17.847 6.171 20.08 12.457-11.285-.004-25.489-6.903-25.489-6.903-9.822-.591-28.806-3.324-30.267-6.903-2.655-6.505 5.31-2.655 9.027-4.78 0 0-41.02-22.302-35.71-36.639z"/>
    </g>
    <path style="opacity:1;fill:#f3f3f3;fill-opacity:.996078;stroke:#000;stroke-width:0;stroke-dasharray:none" d="m78.792 304.715 61.202-45.433-50.314 46.935ZM127.604 306.968c40.176-.376 72.467-38.299 72.467-38.299s-67.586 34.169-72.467 38.299zM195.94 300.96s16.522 9.387 34.169 2.629c17.647-6.759 43.93-33.042 43.93-33.042zM252.638 248.393c12.522 12.8 26.45 22.436 36.374 12.016 9.924-10.42 14.238-12.869 16.973-15.747-4.33-.044-13.398-.308-14.955-2.353-2.646 3.747-6.852 8.713-6.852 8.713s-23.65-21.915-32.01-35.483c-.85 6.802-5.893 12.763-9.293 17.084 2.42 7.794 18.209 7.697 23.374 10.514 5.164 2.817 9.48 5.82 9.387 10.231-6.383-.375-11.301-.748-22.998-4.975zM152.412 243.526s36.327-29.006 38.299-35.201c1.97-6.195-1.502-3.38-1.502-3.38l-9.594 9.416 8.749-10.072s4.224-4.506 4.693-6.29c12.297 10.89 25.627 22.107 38.111 27.645-3.99 1.924-10.7 1.549-10.7 1.549l-7.041.657c-4.13-.329-7.791 2.816-7.416 4.6.376 1.783 3.239 4.88 4.037 7.509-1.69.47-13.8 2.347-17.648 6.195-3.848 3.849-.657-13.33-6.101-11.358-5.445 1.971-12.954 7.98-14.362 8.355-1.408.375-.657-7.135-1.69-7.51-1.032-.375-15.77 9.293-17.835 7.885zM301.93 304.54l17.258.797 44.87-13.275-32.657-.265zM352.878 208.214s14.366 19.066 16.49 27.03c2.124 7.966 18.212 39.838 17.258 33.72l-5.443-34.914z"/>
</svg>
